<svg width="322" height="35" viewBox="0 0 322 35" fill="none" xmlns="http://www.w3.org/2000/svg">
  <path d="M60.848 27.7873H65.9135L57.3821 3.60717L50.9835 3.60717L42.4521 27.7873H47.5177L49.3173 22.2918L59.0484 22.2918L60.848 27.7873ZM50.5503 18.445L53.2497 10.1674C53.5496 9.2057 53.7496 7.93486 53.7829 6.73273C53.7829 6.52665 53.8496 6.25187 54.1828 6.25187C54.5161 6.25187 54.5827 6.52665 54.5827 6.73273C54.6161 7.93486 54.816 9.2057 55.1159 10.1674L57.8153 18.445H50.5503Z" fill="currentColor"/>
  <path d="M72.7341 28.0621C75.8001 28.0621 77.733 25.4861 78.5994 23.7C78.7327 23.4253 78.8327 23.2192 79.0993 23.2879C79.5326 23.3909 79.3326 23.8718 79.1993 24.1809C78.8994 24.9022 78.6661 25.5548 78.6661 26.6539V27.7873H82.9318V9.65221H78.6661V17.0368C78.6661 21.2271 76.3999 24.0779 73.9338 24.0779C71.701 24.0779 70.6679 22.9444 70.6679 18.8572V9.65221H66.4022V20.3684C66.4022 25.5204 68.935 28.0621 72.7341 28.0621Z" fill="currentColor"/>
  <path d="M98.3278 3.05762V10.3391C98.3278 11.0604 98.4944 11.61 98.7943 12.2282C98.961 12.5717 99.1609 12.9838 98.8277 13.1556C98.4944 13.3273 98.2944 12.8808 98.2278 12.7434C97.2613 10.7513 95.3951 9.37743 92.6624 9.37743C88.0968 9.37743 84.9975 13.499 84.9975 18.7198C84.9975 23.9405 88.0968 28.0621 92.6624 28.0621C95.3284 28.0621 96.9947 26.5508 98.2278 24.6618C98.2944 24.5587 98.4277 24.2153 98.7277 24.3183C99.0943 24.4557 98.961 24.7991 98.7943 25.1426C98.4944 25.7609 98.3278 26.3104 98.3278 26.9973V27.7873H102.593V3.05762L98.3278 3.05762ZM93.6622 24.0779C90.6628 24.0779 89.2632 21.6049 89.2632 18.7198C89.2632 15.8346 90.6628 13.3617 93.6622 13.3617C96.4615 13.3617 98.3278 15.8346 98.3278 18.7198C98.3278 21.6049 96.4615 24.0779 93.6622 24.0779Z" fill="currentColor"/>
  <path d="M105.746 7.45401L110.011 7.45401V3.05762L105.746 3.05762V7.45401ZM105.746 27.7873H110.011V9.65221H105.746V27.7873Z" fill="currentColor"/>
  <path d="M128.894 18.4793C128.894 11.8847 124.662 9.37743 120.596 9.37743C115.23 9.37743 111.831 13.0525 111.831 18.7198C111.831 24.1122 114.964 28.0621 120.663 28.0621C125.361 28.0621 127.828 25.2113 128.594 21.4675H124.262C123.762 23.0818 122.729 24.2153 120.696 24.2153C118.03 24.2153 116.297 22.5666 115.997 19.8189L128.794 19.8189C128.861 19.3037 128.894 18.9602 128.894 18.4793ZM116.164 16.7963C116.597 14.6325 117.83 12.9495 120.729 12.9495C123.195 12.9495 124.462 14.5981 124.628 16.7963H116.164Z" fill="currentColor"/>
  <path d="M140.889 9.37743C137.824 9.37743 135.824 11.9191 135.024 13.7395C134.891 14.0142 134.791 14.2203 134.524 14.1516C134.091 14.0486 134.291 13.5677 134.424 13.2586C134.758 12.5373 134.957 11.8847 134.957 10.7856V9.65221H130.692V27.7873H134.957V20.4028C134.957 16.2124 137.224 13.3617 139.69 13.3617C141.923 13.3617 142.956 14.4951 142.956 18.5824V27.7873H147.221V17.0711C147.221 11.9191 144.689 9.37743 140.889 9.37743Z" fill="currentColor"/>
  <path d="M149.014 18.7198C149.014 24.1122 152.547 28.0621 157.912 28.0621C162.878 28.0621 165.777 24.6274 166.077 20.918L161.878 20.918C161.611 22.6353 160.312 24.0779 157.912 24.0779C154.98 24.0779 153.28 21.8797 153.28 18.7198C153.28 15.5599 154.98 13.3617 157.912 13.3617C160.312 13.3617 161.611 14.8042 161.878 16.5216H166.077C165.777 12.8121 162.844 9.37743 157.912 9.37743C152.447 9.37743 149.014 13.3273 149.014 18.7198Z" fill="currentColor"/>
  <path d="M184.522 18.4793C184.522 11.8847 180.29 9.37743 176.224 9.37743C170.858 9.37743 167.459 13.0525 167.459 18.7198C167.459 24.1122 170.592 28.0621 176.291 28.0621C180.99 28.0621 183.456 25.2113 184.222 21.4675H179.89C179.39 23.0818 178.357 24.2153 176.324 24.2153C173.658 24.2153 171.925 22.5666 171.625 19.8189H184.422C184.489 19.3037 184.522 18.9602 184.522 18.4793ZM171.792 16.7963C172.225 14.6325 173.458 12.9495 176.357 12.9495C178.823 12.9495 180.09 14.5981 180.256 16.7963H171.792Z" fill="currentColor"/>
  <path d="M192.83 27.7873H197.362V18.9945H200.961C204.694 18.9945 205.36 20.2997 206.027 22.8757L207.293 27.7873L212.559 27.7873L210.293 21.3301C209.793 19.8876 209.093 18.0328 205.76 17.8611C205.527 17.8611 205.394 17.6894 205.394 17.4146C205.394 17.1055 205.594 17.0024 205.76 16.9681C209.393 16.3498 211.492 13.7738 211.492 10.9574C211.492 6.83577 208.96 3.60717 202.361 3.60717L192.83 3.60717V27.7873ZM197.362 15.079V7.66009L202.861 7.66009C205.427 7.66009 206.96 9.06831 206.96 11.4382C206.96 13.5677 204.694 15.079 201.928 15.079H197.362Z" fill="currentColor"/>
  <path d="M230.363 18.4793C230.363 11.8847 226.131 9.37743 222.065 9.37743C216.699 9.37743 213.3 13.0525 213.3 18.7198C213.3 24.1122 216.433 28.0621 222.132 28.0621C226.83 28.0621 229.297 25.2113 230.063 21.4675H225.731C225.231 23.0818 224.198 24.2153 222.165 24.2153C219.499 24.2153 217.766 22.5666 217.466 19.8189L230.263 19.8189C230.33 19.3037 230.363 18.9602 230.363 18.4793ZM217.633 16.7963C218.066 14.6325 219.299 12.9495 222.198 12.9495C224.664 12.9495 225.931 14.5981 226.097 16.7963H217.633Z" fill="currentColor"/>
  <path d="M236.426 9.65221L232.161 9.65221V34.3819H236.426V26.9973C236.426 26.3104 236.26 25.7609 235.96 25.1426C235.793 24.7991 235.66 24.4557 236.027 24.3183C236.326 24.2153 236.46 24.5587 236.526 24.6618C237.593 26.6539 239.426 28.0621 242.092 28.0621C246.657 28.0621 249.757 23.9405 249.757 18.7198C249.757 13.499 246.657 9.37743 242.092 9.37743C239.359 9.37743 237.593 10.82 236.526 12.7434C236.46 12.8808 236.26 13.3273 235.927 13.1556C235.593 12.9838 235.827 12.5717 235.96 12.2282C236.26 11.61 236.426 11.0604 236.426 10.3391V9.65221ZM241.092 24.0779C238.293 24.0779 236.426 21.6049 236.426 18.7198C236.426 15.8346 238.293 13.3617 241.092 13.3617C244.091 13.3617 245.491 15.8346 245.491 18.7198C245.491 21.6049 244.091 24.0779 241.092 24.0779Z" fill="currentColor"/>
  <path d="M257.902 28.0621C260.968 28.0621 262.9 25.4861 263.767 23.7C263.9 23.4253 264 23.2192 264.267 23.2879C264.7 23.3909 264.5 23.8718 264.367 24.1809C264.067 24.9022 263.834 25.5548 263.834 26.6539V27.7873H268.099V9.65221H263.834V17.0368C263.834 21.2271 261.567 24.0779 259.101 24.0779C256.868 24.0779 255.835 22.9444 255.835 18.8572V9.65221L251.57 9.65221V20.3684C251.57 25.5204 254.102 28.0621 257.902 28.0621Z" fill="currentColor"/>
  <path d="M275.497 3.05762L271.231 3.05762V27.7873L275.497 27.7873V26.9973C275.497 26.3104 275.33 25.7609 275.031 25.1426C274.864 24.7991 274.731 24.4557 275.097 24.3183C275.397 24.2153 275.53 24.5587 275.597 24.6618C276.663 26.6539 278.496 28.0621 281.162 28.0621C285.728 28.0621 288.827 23.9405 288.827 18.7198C288.827 13.499 285.728 9.37743 281.162 9.37743C278.43 9.37743 276.663 10.82 275.597 12.7434C275.53 12.8808 275.33 13.3273 274.997 13.1556C274.664 12.9838 274.897 12.5717 275.031 12.2282C275.33 11.61 275.497 11.0604 275.497 10.3391V3.05762ZM280.163 24.0779C277.363 24.0779 275.497 21.6049 275.497 18.7198C275.497 15.8346 277.363 13.3617 280.163 13.3617C283.162 13.3617 284.562 15.8346 284.562 18.7198C284.562 21.6049 283.162 24.0779 280.163 24.0779Z" fill="currentColor"/>
  <path d="M290.913 3.05762V27.7873H295.179V3.05762L290.913 3.05762Z" fill="currentColor"/>
  <path d="M298.325 7.45401L302.591 7.45401V3.05762L298.325 3.05762V7.45401ZM298.325 27.7873H302.591V9.65221L298.325 9.65221V27.7873Z" fill="currentColor"/>
  <path d="M304.411 18.7198C304.411 24.1122 307.944 28.0621 313.309 28.0621C318.275 28.0621 321.174 24.6274 321.474 20.918L317.275 20.918C317.008 22.6353 315.709 24.0779 313.309 24.0779C310.376 24.0779 308.677 21.8797 308.677 18.7198C308.677 15.5599 310.376 13.3617 313.309 13.3617C315.709 13.3617 317.008 14.8042 317.275 16.5216H321.474C321.174 12.8121 318.241 9.37743 313.309 9.37743C307.844 9.37743 304.411 13.3273 304.411 18.7198Z" fill="currentColor"/>
  <path d="M8.35978 27.5081C8.35978 29.6798 6.63896 31.4429 4.51339 31.4429C2.38782 31.4429 0.666992 29.6825 0.666992 27.5081C0.666992 25.3337 2.38782 23.5734 4.51339 23.5734C6.63896 23.5734 8.35978 25.3337 8.35978 27.5081ZM20.9658 25.0349C20.3922 24.3165 19.639 23.8613 18.8348 23.6748C17.4732 23.3567 15.5942 22.8659 14.8893 21.632L14.7258 21.3469C14.0047 20.0828 14.5837 18.1442 14.9563 16.7348C15.3235 15.3364 14.9268 13.7734 13.7635 12.737C12.3241 11.4537 10.1369 11.4619 8.70556 12.7534C7.02494 14.2697 6.96329 16.8966 8.52329 18.4924C9.03793 19.0189 9.65979 19.3644 10.3165 19.5289C11.6942 19.8771 13.6161 20.3296 14.3317 21.5854L14.4953 21.8733C15.2163 23.1374 14.632 25.0787 14.2594 26.4936C13.9136 27.807 14.246 29.2685 15.2538 30.2995C16.8138 31.8953 19.3843 31.8323 20.8639 30.1103C22.0916 28.6845 22.1371 26.5155 20.9631 25.0431L20.9658 25.0349ZM34.4268 25.0349C33.8505 24.3137 33.0947 23.8585 32.2879 23.6721C30.9289 23.3567 29.0285 22.8961 28.3262 21.6677L28.1466 21.3523C27.4336 20.1047 28.0314 18.1552 28.4093 16.765C28.7685 15.4433 28.4415 13.9654 27.4256 12.9262C26.9029 12.3915 26.265 12.0405 25.5949 11.8787C24.2332 11.5497 22.3087 11.1164 21.601 9.8798L21.4188 9.55899C20.7085 8.31412 21.3035 6.37552 21.6814 4.98807C22.0647 3.58142 21.6707 2.00203 20.4967 0.957324C19.0573 -0.325933 16.8701 -0.317707 15.4388 0.973776C13.7581 2.4901 13.6965 5.11694 15.2565 6.71279C15.7792 7.24748 16.4144 7.59571 17.0845 7.75749C18.4435 8.08653 20.3627 8.52251 21.0676 9.75641L21.2579 10.0882C21.9683 11.3303 21.3759 13.2689 21.0006 14.6564C20.6441 15.978 20.9711 17.4505 21.987 18.4897C22.5097 19.0244 23.1423 19.3726 23.8124 19.5344C25.1713 19.8662 27.0798 20.2967 27.7821 21.5306L27.9831 21.8815C28.6934 23.1264 28.1091 25.0678 27.7311 26.458C27.372 27.7796 27.7017 29.2548 28.7175 30.294C30.2775 31.8899 32.8481 31.8268 34.3276 30.1048C35.5553 28.679 35.6008 26.51 34.4268 25.0376V25.0349Z" fill="currentColor"/>
</svg>
